<svg width="30" height="30" viewBox="0 0 30 30" fill="none" xmlns="http://www.w3.org/2000/svg">
<path fill-rule="evenodd" clip-rule="evenodd" d="M11.3271 16.0181H14.4012C13.9752 16.969 13.6978 18.0508 13.5766 19.1695C11.4265 19.6925 9.72971 21.3738 9.18457 23.5151C8.98019 24.318 9.67103 25 10.4995 25H19.4998C20.3283 25 21.0191 24.318 20.8148 23.5151C20.2001 21.1007 18.1213 19.2711 15.5794 19.0274C15.7519 17.5044 16.4177 16.0796 17.4753 14.9701L20.6092 14.3213C22.5056 13.9221 23.9029 12.5248 24.2023 10.7282L25.0008 6.23685C25.0008 5.95251 24.9502 5.7188 24.8489 5.49966C24.7658 5.31988 24.62 5.17337 24.4364 5.09905C24.1903 4.99941 23.9205 4.96674 23.7033 5.03916L19.1121 6.63609C17.2158 7.23494 16.0181 8.93167 16.0181 10.828V13.6227L15.8184 13.8422L15.2196 11.0276C14.8204 9.13129 13.2234 7.73398 11.2273 7.33474L6.13705 6.53628C5.77485 6.48943 5.43839 6.53628 5.23877 6.8357C5.03916 7.13513 4.93935 7.53436 5.03916 7.83378L6.73589 12.8242C7.43455 14.7205 9.2311 16.0181 11.3271 16.0181ZM19.6112 8.53244L22.7052 7.53436L22.1064 10.329C21.9067 11.3271 21.1083 12.1255 20.1102 12.3252L17.9144 12.8242V10.828C17.9144 9.82995 18.6131 8.83187 19.6112 8.53244ZM8.63225 12.2253L7.53436 8.83187L10.9278 9.33091C12.1255 9.53052 13.1236 10.4288 13.3232 11.5267L13.7225 14.0219H11.3271C10.1294 14.0219 9.03148 13.3232 8.63225 12.2253Z" fill="#008060"/>
</svg>
