<svg width="30" height="30" viewBox="0 0 30 30" fill="none" xmlns="http://www.w3.org/2000/svg">
<path fill-rule="evenodd" clip-rule="evenodd" d="M20.284 19.546C20.771 19.204 21.361 19 22 19C23.654 19 25 20.346 25 22C25 23.654 23.654 25 22 25C20.346 25 19 23.654 19 22C19.0038 21.7213 19.0472 21.4445 19.129 21.178L17.554 20.053C16.859 20.635 15.976 21 15 21C14.0635 20.9959 13.1587 20.6604 12.446 20.053L10.871 21.178C10.947 21.44 11 21.713 11 22C11 23.654 9.654 25 8 25C6.346 25 5 23.654 5 22C5 20.346 6.346 19 8 19C8.61467 19.0004 9.21414 19.1911 9.716 19.546L11.276 18.432C11.104 17.985 11 17.506 11 17C11 15.142 12.28 13.589 14 13.142V10.815C12.838 10.401 12 9.302 12 8C12 6.346 13.346 5 15 5C16.654 5 18 6.346 18 8C17.998 8.6184 17.8047 9.22104 17.4466 9.72522C17.0886 10.2294 16.5832 10.6104 16 10.816V13.142C17.72 13.589 19 15.142 19 17C18.9972 17.4903 18.9036 17.9758 18.724 18.432L20.284 19.546ZM21.3213 22.6918C21.4994 22.8781 21.7425 22.9885 22 23C22.2575 22.9885 22.5006 22.8781 22.6787 22.6918C22.8569 22.5055 22.9563 22.2577 22.9563 22C22.9563 21.7423 22.8569 21.4945 22.6787 21.3082C22.5006 21.1219 22.2575 21.0115 22 21C21.7425 21.0115 21.4994 21.1219 21.3213 21.3082C21.1431 21.4945 21.0437 21.7423 21.0437 22C21.0437 22.2577 21.1431 22.5055 21.3213 22.6918ZM7.32128 22.6918C7.49941 22.8781 7.74252 22.9885 8 23C8.25748 22.9885 8.50059 22.8781 8.67872 22.6918C8.85685 22.5055 8.95627 22.2577 8.95627 22C8.95627 21.7423 8.85685 21.4945 8.67872 21.3082C8.50059 21.1219 8.25748 21.0115 8 21C7.74252 21.0115 7.49941 21.1219 7.32128 21.3082C7.14315 21.4945 7.04373 21.7423 7.04373 22C7.04373 22.2577 7.14315 22.5055 7.32128 22.6918ZM16 8C16 7.449 15.551 7 15 7C14.449 7 14 7.449 14 8C14 8.551 14.449 9 15 9C15.551 9 16 8.551 16 8Z" fill="#008060"/>
</svg>
