<svg width="61" height="62" viewBox="0 0 61 62" fill="none" xmlns="http://www.w3.org/2000/svg">
<g filter="url(#filter0_d_165_9471)">
<circle cx="30.5" cy="30.5" r="30.5" fill="#FD938D"/>
<path d="M32.121 31L41.5605 21.5605C41.8418 21.2793 41.9998 20.8978 41.9998 20.5C41.9998 20.1023 41.8418 19.7208 41.5605 19.4395C41.2793 19.1583 40.8978 19.0002 40.5 19.0002C40.1023 19.0002 39.7208 19.1583 39.4395 19.4395L30 28.879L20.5605 19.4395C20.4213 19.3003 20.2559 19.1898 20.074 19.1144C19.892 19.039 19.697 19.0002 19.5 19.0002C19.3031 19.0002 19.108 19.039 18.9261 19.1144C18.7441 19.1898 18.5788 19.3003 18.4395 19.4395C18.1583 19.7208 18.0002 20.1023 18.0002 20.5C18.0002 20.8978 18.1583 21.2793 18.4395 21.5605L27.879 31L18.4395 40.4395C18.1583 40.7208 18.0002 41.1023 18.0002 41.5C18.0002 41.8978 18.1583 42.2793 18.4395 42.5605C18.7208 42.8418 19.1023 42.9998 19.5 42.9998C19.8978 42.9998 20.2793 42.8418 20.5605 42.5605L30 33.121L39.4395 42.5605C39.5785 42.7003 39.7437 42.8112 39.9257 42.8869C40.1077 42.9626 40.3029 43.0016 40.5 43.0016C40.6971 43.0016 40.8923 42.9626 41.0743 42.8869C41.2563 42.8112 41.4215 42.7003 41.5605 42.5605C41.6999 42.4213 41.8105 42.256 41.886 42.0741C41.9615 41.8921 42.0003 41.697 42.0003 41.5C42.0003 41.303 41.9615 41.108 41.886 40.926C41.8105 40.744 41.6999 40.5787 41.5605 40.4395L32.121 31Z" fill="#F6F6F7"/>
</g>
<defs>
<filter id="filter0_d_165_9471" x="0" y="0" width="61" height="62" filterUnits="userSpaceOnUse" color-interpolation-filters="sRGB">
<feFlood flood-opacity="0" result="BackgroundImageFix"/>
<feColorMatrix in="SourceAlpha" type="matrix" values="0 0 0 0 0 0 0 0 0 0 0 0 0 0 0 0 0 0 127 0" result="hardAlpha"/>
<feOffset dy="1"/>
<feColorMatrix type="matrix" values="0 0 0 0 0 0 0 0 0 0 0 0 0 0 0 0 0 0 0.05 0"/>
<feBlend mode="normal" in2="BackgroundImageFix" result="effect1_dropShadow_165_9471"/>
<feBlend mode="normal" in="SourceGraphic" in2="effect1_dropShadow_165_9471" result="shape"/>
</filter>
</defs>
</svg>
