<svg width="30" height="30" viewBox="0 0 30 30" fill="none" xmlns="http://www.w3.org/2000/svg">
<path fill-rule="evenodd" clip-rule="evenodd" d="M10.6254 14.3833C12.6642 14.3833 14.3171 12.7305 14.3171 10.6916C14.3171 8.65281 12.6642 7 10.6254 7C8.58657 7 6.93376 8.65281 6.93376 10.6916C6.93376 12.7305 8.58657 14.3833 10.6254 14.3833ZM10.6254 16.289C7.70972 16.289 5.29777 17.8318 4.08583 18.7849C3.54486 19.2104 3.37611 19.9296 3.58973 20.5838L3.88123 21.4766C4.12914 22.2358 4.83722 22.7494 5.63588 22.7494H14.3856H15.6149H24.3647C25.1634 22.7494 25.8714 22.2358 26.1193 21.4766L26.4108 20.5838C26.6245 19.9296 26.4557 19.2104 25.9147 18.7849C24.7028 17.8318 22.2909 16.289 19.3752 16.289C17.7091 16.289 16.2075 16.7928 15.0003 17.4024C13.7931 16.7928 12.2915 16.289 10.6254 16.289ZM19.3752 14.3833C21.414 14.3833 23.0668 12.7305 23.0668 10.6916C23.0668 8.65281 21.414 7 19.3752 7C17.3363 7 15.6835 8.65281 15.6835 10.6916C15.6835 12.7305 17.3363 14.3833 19.3752 14.3833Z" fill="#007F5F"/>
</svg>
