<svg width="30" height="30" viewBox="0 0 30 30" fill="none" xmlns="http://www.w3.org/2000/svg">
<path d="M20.6667 16.1111C20.6667 16.7248 21.1641 17.2222 21.7778 17.2222C22.3914 17.2222 22.8889 16.7248 22.8889 16.1111V15H24C24.6137 15 25.1111 14.5025 25.1111 13.8889C25.1111 13.2752 24.6137 12.7778 24 12.7778H22.8889V11.6667C22.8889 11.053 22.3914 10.5556 21.7778 10.5556C21.1641 10.5556 20.6667 11.053 20.6667 11.6667L20.6667 12.7778H19.5556C18.9419 12.7778 18.4445 13.2752 18.4445 13.8889C18.4445 14.5025 18.9419 15 19.5556 15H20.6667L20.6667 16.1111Z" fill="#007F5F"/>
<path d="M17.7364 9.68798C17.7364 12.2771 15.6376 14.376 13.0485 14.376C10.4594 14.376 8.36049 12.2771 8.36049 9.68798C8.36049 7.09888 10.4594 5 13.0485 5C15.6376 5 17.7364 7.09888 17.7364 9.68798Z" fill="#007F5F"/>
<path d="M4.74393 19.9655C6.28296 18.7551 9.34586 16.796 13.0485 16.796C16.7511 16.796 19.814 18.7551 21.353 19.9655C22.04 20.5058 22.2543 21.4191 21.983 22.2499L21.6128 23.3836C21.298 24.3477 20.3988 25 19.3846 25H6.71233C5.69811 25 4.79894 24.3477 4.48412 23.3836L4.11395 22.2499C3.84267 21.4191 4.05697 20.5058 4.74393 19.9655Z" fill="#007F5F"/>
</svg>
