<svg width="30" height="30" viewBox="0 0 30 30" fill="none" xmlns="http://www.w3.org/2000/svg">
<g clip-path="url(#clip0_167_8125)">
<path d="M21.7071 15.2929C21.5196 15.1054 21.2652 15 21 15C20.7348 15 20.4804 15.1054 20.2929 15.2929C20.1054 15.4804 20 15.7348 20 16V20H12.222C11.9568 20.0001 11.7025 20.1054 11.515 20.293L10.111 21.697V21C10.111 20.7348 10.0056 20.4804 9.81811 20.2929C9.63057 20.1054 9.37622 20 9.111 20H7V10H14C14.2652 10 14.5196 9.89464 14.7071 9.70711C14.8946 9.51957 15 9.26522 15 9C15 8.73478 14.8946 8.48043 14.7071 8.29289C14.5196 8.10536 14.2652 8 14 8H6.5C5.67157 8 5 8.67157 5 9.5V20.5C5 21.3284 5.67157 22 6.5 22H8.111V24C8.11056 24.198 8.16895 24.3916 8.27876 24.5563C8.38856 24.721 8.54483 24.8494 8.72773 24.9252C8.91062 25.0009 9.1119 25.0206 9.30602 24.9818C9.50014 24.9429 9.67834 24.8473 9.818 24.707L12.636 22H20.5C21.3284 22 22 21.3284 22 20.5V16C22 15.7348 21.8946 15.4804 21.7071 15.2929Z" fill="#007F5F"/>
<path d="M20.4437 9.83224C20.6084 9.94205 20.802 10.0004 21 10C21.1313 10.0001 21.2614 9.97432 21.3827 9.92404C21.5041 9.87376 21.6143 9.8 21.707 9.707L23.707 7.707C23.8945 7.51949 23.9998 7.26518 23.9998 7C23.9998 6.73482 23.8945 6.48051 23.707 6.293C23.5195 6.10549 23.2652 6.00015 23 6.00015C22.7348 6.00015 22.4805 6.10549 22.293 6.293L20.293 8.293C20.1527 8.43266 20.0571 8.61086 20.0182 8.80498C19.9794 8.9991 19.9991 9.20038 20.0748 9.38327C20.1506 9.56617 20.279 9.72244 20.4437 9.83224Z" fill="#007F5F"/>
<path d="M24.7071 11.2929C24.5196 11.1054 24.2652 11 24 11H22C21.7348 11 21.4804 11.1054 21.2929 11.2929C21.1054 11.4804 21 11.7348 21 12C21 12.2652 21.1054 12.5196 21.2929 12.7071C21.4804 12.8946 21.7348 13 22 13H24C24.2652 13 24.5196 12.8946 24.7071 12.7071C24.8946 12.5196 25 12.2652 25 12C25 11.7348 24.8946 11.4804 24.7071 11.2929Z" fill="#007F5F"/>
<path d="M17.2929 8.70711C17.4804 8.89464 17.7348 9 18 9C18.2652 9 18.5196 8.89464 18.7071 8.70711C18.8946 8.51957 19 8.26522 19 8V6C19 5.73478 18.8946 5.48043 18.7071 5.29289C18.5196 5.10536 18.2652 5 18 5C17.7348 5 17.4804 5.10536 17.2929 5.29289C17.1054 5.48043 17 5.73478 17 6V8C17 8.26522 17.1054 8.51957 17.2929 8.70711Z" fill="#007F5F"/>
<path d="M9 12H18V14H9V12Z" fill="#007F5F"/>
<path d="M9 16H16V18H9V16Z" fill="#007F5F"/>
</g>
<defs>
<clipPath id="clip0_167_8125">
<rect width="20" height="20" fill="white" transform="translate(5 5)"/>
</clipPath>
</defs>
</svg>
