<svg width="30" height="30" viewBox="0 0 30 30" fill="none" xmlns="http://www.w3.org/2000/svg">
<path d="M6.62337 7.2534L6.01414 10.8356C5.91047 11.4451 6.39012 12 7.02069 12H7.93141C8.51118 12 9.04118 11.679 9.30046 11.1708L9.89784 10L10.4952 11.1708C10.7545 11.679 11.2845 12 11.8643 12H13.0336C13.6133 12 14.1433 11.679 14.4026 11.1708L15 10L15.5974 11.1708C15.8567 11.679 16.3867 12 16.9664 12H18.1357C18.7155 12 19.2455 11.679 19.5048 11.1708L20.1022 10L20.6995 11.1708C20.9588 11.679 21.4888 12 22.0686 12H22.9793C23.6099 12 24.0895 11.4451 23.9859 10.8356L23.3766 7.2534C23.2536 6.53012 22.615 6 21.8668 6H8.13319C7.38495 6 6.74638 6.53012 6.62337 7.2534Z" fill="#008060"/>
<path d="M18.7071 14.2929C19.0976 14.6834 19.0976 15.3166 18.7071 15.7071L14.7071 19.7071C14.3166 20.0976 13.6834 20.0976 13.2929 19.7071L11.2929 17.7071C10.9024 17.3166 10.9024 16.6834 11.2929 16.2929C11.6834 15.9024 12.3166 15.9024 12.7071 16.2929L14 17.5858L17.2929 14.2929C17.6834 13.9024 18.3166 13.9024 18.7071 14.2929Z" fill="#008060"/>
<path d="M9 14H7V22.5C7 23.3284 7.67157 24 8.5 24H21.5C22.3284 24 23 23.3284 23 22.5V14H21V22H9V14Z" fill="#008060"/>
</svg>
