<svg width="30" height="30" viewBox="0 0 30 30" fill="none" xmlns="http://www.w3.org/2000/svg">
<path fill-rule="evenodd" clip-rule="evenodd" d="M15 25C20.5228 25 25 20.5228 25 15C25 9.47715 20.5228 5 15 5C9.47715 5 5 9.47715 5 15C5 20.5228 9.47715 25 15 25ZM12.7071 13.7071C12.5196 13.8946 12.2652 14 12 14C11.7348 14 11.4804 13.8946 11.2929 13.7071C11.1054 13.5196 11 13.2652 11 13C11 12.7348 11.1054 12.4804 11.2929 12.2929C11.4804 12.1054 11.7348 12 12 12C12.2652 12 12.5196 12.1054 12.7071 12.2929C12.8946 12.4804 13 12.7348 13 13C13 13.2652 12.8946 13.5196 12.7071 13.7071ZM17.2929 12.2929C17.4804 12.1054 17.7348 12 18 12C18.2652 12 18.5196 12.1054 18.7071 12.2929C18.8946 12.4804 19 12.7348 19 13C19 13.2652 18.8946 13.5196 18.7071 13.7071C18.5196 13.8946 18.2652 14 18 14C17.7348 14 17.4804 13.8946 17.2929 13.7071C17.1054 13.5196 17 13.2652 17 13C17 12.7348 17.1054 12.4804 17.2929 12.2929ZM17.304 17.281C17.274 17.311 16.518 18.001 15 18.001C13.503 18.001 12.748 17.331 12.697 17.283C12.5072 17.1017 12.2537 17.0023 11.9913 17.0063C11.7289 17.0102 11.4785 17.1172 11.2942 17.3041C11.1099 17.491 11.0065 17.7428 11.0063 18.0053C11.0061 18.2677 11.109 18.5198 11.293 18.707C11.425 18.84 12.653 20 15 20C17.346 20 18.575 18.84 18.707 18.707C18.8917 18.5217 18.9958 18.2711 18.9967 18.0095C18.9976 17.748 18.8953 17.4966 18.712 17.31C18.5278 17.1219 18.2772 17.0135 18.0139 17.008C17.7507 17.0026 17.4958 17.1006 17.304 17.281Z" fill="#008060"/>
</svg>
